Coordinates
nRows=6
nColumns=34

# SIMM Motion File Header:
name Coordinates
datacolumns 34
datarows 6
otherdata 1
range 0.60000000 0.60500000

Units are S.I. units (second, meters, Newtons, ...)
Angles are in degrees.

endheader
time	pelvis_tz	pelvis_tx	pelvis_ty	pelvis_tilt	pelvis_list	pelvis_rotation	hip_flexion_r	hip_adduction_r	hip_rotation_r	knee_r_tx	knee_r_ty	knee_angle_r	tib_pat_r_tx	tib_pat_r_ty	tib_pat_r_r1	ankle_angle_r	subtalar_angle_r	mtp_angle_r	hip_flexion_l	hip_adduction_l	hip_rotation_l	knee_l_tx	knee_l_ty	knee_angle_l	tib_pat_l_tx	tib_pat_l_ty	tib_pat_l_r1	ankle_angle_l	subtalar_angle_l	mtp_angle_l	lumbar_extension	lumbar_bending	lumbar_rotation
      0.60000000	     -0.25881867	      0.44989812	      0.89521755	     -0.71936381	      1.62139315	     -3.34091305	    -13.41151705	      1.44469669	     15.44965129	     -0.00115069	     -0.41492324	    -19.50354024	      0.04394872	     -0.02050534	     13.47132393	     19.03744702	     -0.00000000	      0.00000000	     22.48714028	      2.80393007	      9.47307241	     -0.00355543	     -0.41378677	     -8.27677192	      0.04554958	     -0.02094832	      7.94966233	     -5.39203114	      0.00000000	      0.00000000	     -5.59663742	      1.27227459	      4.64395909
      0.60100000	     -0.25892165	      0.45117904	      0.89529956	     -0.72648337	      1.67817248	     -3.31343912	    -13.38983582	      1.39533106	     15.37556022	     -0.00111124	     -0.41494531	    -19.68572883	      0.04392255	     -0.02049915	     13.52447827	     18.85859185	     -0.00000000	      0.00000000	     22.47509285	      2.89023089	      9.47577082	     -0.00353481	     -0.41379695	     -8.39313384	      0.04553128	     -0.02094238	      8.03468707	     -5.41371635	      0.00000000	      0.00000000	     -5.56176413	      1.19171910	      4.64107263
      0.60200000	     -0.25902556	      0.45246164	      0.89538447	     -0.73365483	      1.73477792	     -3.28543192	    -13.36699762	      1.34597962	     15.30042883	     -0.00107171	     -0.41496770	    -19.86932908	      0.04389603	     -0.02049290	     13.57713990	     18.67373816	     -0.00000000	      0.00000000	     22.46233843	      2.97649170	      9.47884897	     -0.00351417	     -0.41380709	     -8.50882331	      0.04551307	     -0.02093649	      8.11853973	     -5.43372061	      0.00000000	      0.00000000	     -5.52662259	      1.11139116	      4.63764740
      0.60300000	     -0.25913035	      0.45374587	      0.89547227	     -0.74087362	      1.79119516	     -3.25690400	    -13.34299048	      1.29664940	     15.22426517	     -0.00103211	     -0.41499042	    -20.05434365	      0.04386916	     -0.02048658	     13.62930178	     18.48285708	     -0.00000000	      0.00000000	     22.44886111	      3.06268503	      9.48229962	     -0.00349352	     -0.41381720	     -8.62378407	      0.04549497	     -0.02093066	      8.20119510	     -5.45202463	      0.00000000	      0.00000000	     -5.49122684	      1.03130825	      4.63368511
      0.60400000	     -0.25923601	      0.45503168	      0.89556293	     -0.74813521	      1.84741024	     -3.22786825	    -13.31780254	      1.24734700	     15.14707785	     -0.00099245	     -0.41501348	    -20.24077470	      0.04384193	     -0.02048018	     13.68095715	     18.28592351	     -0.00000000	      0.00000000	     22.43464532	      3.14878376	      9.48611510	     -0.00347287	     -0.41382725	     -8.73796112	      0.04547700	     -0.02092487	      8.28262995	     -5.46861003	      0.00000000	      0.00000000	     -5.45559098	      0.95148742	      4.62918768
      0.60500000	     -0.25934251	      0.45631902	      0.89565640	     -0.75543512	      1.90340958	     -3.19833789	    -13.29142209	      1.19807856	     15.06887600	     -0.00095273	     -0.41503687	    -20.42862394	      0.04381433	     -0.02047371	     13.73209955	     18.08291620	     -0.00000000	      0.00000000	     22.41967585	      3.23476120	      9.49028727	     -0.00345225	     -0.41383726	     -8.85130069	      0.04545917	     -0.02091915	      8.36282298	     -5.48345940	      0.00000000	      0.00000000	     -5.41972909	      0.87194537	      4.62415726
